<svg xmlns="http://www.w3.org/2000/svg" width="80.953" height="14" viewBox="0 0 80.953 14"><defs><style>.a{fill:#231f20;}</style></defs><g transform="translate(510 -286)"><g transform="translate(-510 286)"><g transform="translate(4.658 0.021)"><path class="a" d="M628.366,135.489h3.94a.284.284,0,0,1,.318.318v1.99a.276.276,0,0,1-.318.318h-6.328a.284.284,0,0,1-.318-.318V124.5a.293.293,0,0,1,.318-.318h2.07a.284.284,0,0,1,.318.318Z" transform="translate(-625.66 -124.186)"/><path class="a" d="M741.714,124.186c.3,0,.438.2.318.458L738.39,132.9v4.816a.357.357,0,0,1-.4.4h-1.91a.357.357,0,0,1-.4-.4V132.9l-3.642-8.258c-.119-.259.02-.458.318-.458h1.99a.455.455,0,0,1,.458.318l2.229,5.114,2.229-5.114a.455.455,0,0,1,.458-.318Z" transform="translate(-725.833 -124.186)"/><path class="a" d="M933.93,124.186a.284.284,0,0,1,.318.318v1.99a.284.284,0,0,1-.318.318h-2.308V137.8a.276.276,0,0,1-.318.318h-2.07a.284.284,0,0,1-.318-.318V126.813h-2.308a.293.293,0,0,1-.318-.318V124.5a.293.293,0,0,1,.318-.318Z" transform="translate(-908.857 -124.186)"/><path class="a" d="M1094.768,138.116a.284.284,0,0,1-.318-.318V124.5a.284.284,0,0,1,.318-.318h2.069a.293.293,0,0,1,.318.318V137.8a.293.293,0,0,1-.318.318Z" transform="translate(-1067.267 -124.186)"/><path class="a" d="M1190.284,129.2a.293.293,0,0,1-.318.318h-1.871a.284.284,0,0,1-.318-.318v-1.632a.714.714,0,0,0-.8-.8h-1.274a.706.706,0,0,0-.8.8v7.224a.706.706,0,0,0,.8.8h1.274a.706.706,0,0,0,.8-.8V133.1a.284.284,0,0,1,.318-.318h1.871a.293.293,0,0,1,.318.318v2.149a2.574,2.574,0,0,1-2.866,2.866h-2.229a2.58,2.58,0,0,1-2.885-2.866v-8.2a2.58,2.58,0,0,1,2.885-2.865h2.229a2.574,2.574,0,0,1,2.866,2.865Z" transform="translate(-1150.027 -124.186)"/><path class="a" d="M1366.2,124.186a2.565,2.565,0,0,1,2.866,2.865v1.313a.284.284,0,0,1-.318.318h-2.01a.293.293,0,0,1-.318-.318v-.836a.706.706,0,0,0-.8-.8h-1.094a.723.723,0,0,0-.8.8v1.691l4.816,1.552a.714.714,0,0,1,.517.736v3.741a2.565,2.565,0,0,1-2.866,2.866h-2.229a2.574,2.574,0,0,1-2.865-2.866v-1.293a.284.284,0,0,1,.318-.318h2.01a.276.276,0,0,1,.318.318v.836a.714.714,0,0,0,.8.8h1.074a.706.706,0,0,0,.8-.8v-2.01l-4.776-1.552a.709.709,0,0,1-.537-.736v-3.443a2.574,2.574,0,0,1,2.865-2.865Z" transform="translate(-1318.458 -124.186)"/><path class="a" d="M1539.56,319.513a.357.357,0,0,1,.4-.4h1.811a.357.357,0,0,1,.4.4v1.831a.357.357,0,0,1-.4.4h-1.811a.357.357,0,0,1-.4-.4Z" transform="translate(-1486.568 -307.812)"/><path class="a" d="M1630.79,124.186a2.565,2.565,0,0,1,2.865,2.865v1.313a.284.284,0,0,1-.318.318h-2.01a.293.293,0,0,1-.318-.318v-.836a.706.706,0,0,0-.8-.8h-1.094a.723.723,0,0,0-.8.8v1.691l4.816,1.552a.714.714,0,0,1,.517.736v3.741a2.565,2.565,0,0,1-2.865,2.866h-2.229a2.574,2.574,0,0,1-2.865-2.866v-1.293a.284.284,0,0,1,.318-.318h2.01a.276.276,0,0,1,.318.318v.836a.714.714,0,0,0,.8.8h1.075a.706.706,0,0,0,.8-.8v-2.01l-4.776-1.552a.709.709,0,0,1-.537-.736v-3.443a2.574,2.574,0,0,1,2.865-2.865Z" transform="translate(-1567.709 -124.186)"/><path class="a" d="M1804.154,127.051a2.565,2.565,0,0,1,2.866-2.865h2.229a2.574,2.574,0,0,1,2.865,2.865v1.473a.293.293,0,0,1-.318.318h-1.871a.284.284,0,0,1-.318-.318v-.975a.714.714,0,0,0-.8-.8h-1.274a.706.706,0,0,0-.8.8v7.2a.706.706,0,0,0,.8.8h1.274a.706.706,0,0,0,.8-.8v-1.731h-1.035a.284.284,0,0,1-.319-.318v-1.99c0-.219.1-.318.319-.318h3.224a.284.284,0,0,1,.318.318v4.537a2.574,2.574,0,0,1-2.865,2.866h-2.229a2.565,2.565,0,0,1-2.866-2.866Z" transform="translate(-1735.819 -124.186)"/></g><g transform="translate(0 0)"><path class="a" d="M545.648,126.536a.284.284,0,0,1-.318-.318v-2.072a.284.284,0,0,1,.318-.318h2.069a.293.293,0,0,1,.318.318v2.072a.293.293,0,0,1-.318.318Z" transform="translate(-545.33 -123.827)"/></g><g transform="translate(0 3.632)"><path class="a" d="M545.648,196.825a.284.284,0,0,1-.318-.318v-9.732a.284.284,0,0,1,.318-.318h2.069a.293.293,0,0,1,.318.318v9.732a.293.293,0,0,1-.318.318Z" transform="translate(-545.33 -186.457)"/></g></g></g></svg>